<?xml version="1.0" encoding="utf-8"?>
<!-- Generator: Adobe Illustrator 19.2.1, SVG Export Plug-In . SVG Version: 6.00 Build 0)  -->
<svg version="1.1" id="illustration" xmlns="http://www.w3.org/2000/svg" xmlns:xlink="http://www.w3.org/1999/xlink" x="0px"
	 y="0px" viewBox="0 0 1400 980" style="enable-background:new 0 0 1400 980;" xml:space="preserve">
<style type="text/css">
	.st0{fill:#151D38;}
	.st1{fill:#FFFFFF;}
	.st2{fill:#AEDEF8;}
	.st3{fill:#7DA6ED;}
	.st4{fill:#249A4B;}
	.st5{fill:#CED8DC;}
	.st6{fill:#EDC062;}
	.st7{fill:#E8384A;}
	.st8{fill:#4D2B11;}
	.st9{fill:#130300;}
</style>
<g>
	<path class="st0" d="M1274.145,468.566c-2.347,5.496-4.052,11.223-6.016,16.856c-17.56,50.38-35.079,100.775-52.612,151.164
		c-18.372,52.8-36.746,105.6-55.118,158.4c-9.554,27.457-19.105,54.915-28.66,82.372c-0.471,1.354-0.968,2.699-1.452,4.047
		c-0.892,0-1.784,0-2.677,0c-2.331-1.353-4.951-1.948-7.462-2.823c-79.62-27.723-159.241-55.441-238.864-83.156
		c-24.087-8.384-48.178-16.758-72.267-25.137c-0.421-0.146-0.839-0.301-1.257-0.456c-2.871-1.069-3.169-1.591-2.212-4.416
		c1.716-5.062,3.487-10.106,5.241-15.155c3.947-11.363,7.904-22.722,11.843-34.087c0.928-2.678,0.914-2.756-1.832-3.189
		c-13.315-2.101-26.638-4.149-39.954-6.238c-16.396-2.572-32.788-5.167-49.182-7.752c-2.86-0.451-5.733-0.837-8.579-1.367
		c-2.776-0.517-3.204-1.134-2.785-3.818c0.945-6.053,1.954-12.096,2.906-18.148c2.769-17.606,5.526-35.213,8.283-52.821
		c2.775-17.72,5.54-35.441,8.317-53.16c2.811-17.937,5.624-35.873,8.449-53.807c2.809-17.827,5.649-35.648,8.448-53.476
		c2.781-17.716,5.515-35.44,8.294-53.157c2.779-17.719,5.597-35.432,8.38-53.15c2.783-17.717,5.541-35.438,8.316-53.156
		c2-12.766,4.007-25.532,6.02-38.296c0.46-2.916,0.9-3.31,4.024-2.861c6.505,0.935,12.993,1.986,19.486,3.003
		c17.939,2.811,35.876,5.625,53.813,8.446c5.172,0.813,10.339,1.659,15.508,2.484c3.445,0.55,3.468,0.553,4.566-2.602
		c9.918-28.511,19.827-57.025,29.742-85.537c1.683-4.84,3.365-9.68,5.073-14.511c1.18-3.338,1.713-3.587,5.171-2.394
		c7.581,2.617,15.155,5.254,22.73,7.89c64.689,22.505,129.378,45.011,194.067,67.517c33.345,11.601,66.691,23.202,100.036,34.806
		c5.023,1.748,5.036,1.763,3.257,6.878c-16.723,48.075-33.458,96.145-50.169,144.224c-2.007,5.773-2.251,4.503,2.941,6.323
		c23.748,8.327,47.53,16.558,71.297,24.832c1.675,0.583,3.431,0.986,4.89,2.081C1274.145,466.335,1274.145,467.451,1274.145,468.566
		z"/>
	<path class="st1" d="M793.538,266.283c-1.204-0.461-1.958,0.143-2.092,1.736c-0.056,0.663-0.238,1.314-0.341,1.975
		c-1.66,10.676-3.301,21.354-4.978,32.028c-3.251,20.688-6.534,41.371-9.78,62.059c-3.211,20.466-6.383,40.939-9.59,61.406
		c-2.828,18.048-5.686,36.091-8.52,54.137c-2.748,17.495-5.473,34.994-8.225,52.488c-2.804,17.826-5.64,35.647-8.44,53.474
		c-2.782,17.715-5.522,35.438-8.308,53.152c-2.752,17.496-5.544,34.986-8.304,52.481c-0.364,2.307-0.245,2.454,2.023,2.814
		c14.083,2.23,28.166,4.453,42.251,6.667c16.613,2.612,33.228,5.213,49.842,7.818c16.176,2.537,32.352,5.077,48.529,7.607
		c14.855,2.324,29.713,4.627,44.567,6.958c17.826,2.797,35.649,5.614,53.474,8.421c16.503,2.599,33.006,5.197,49.51,7.794
		c13.093,2.06,26.184,4.13,39.281,6.165c2.506,0.389,2.569,0.306,2.967-2.218c1.404-8.912,2.784-17.828,4.185-26.741
		c2.611-16.614,5.232-33.227,7.847-49.841c2.788-17.716,5.576-35.433,8.361-53.15c2.767-17.604,5.535-35.208,8.295-52.813
		c2.795-17.828,5.579-35.659,8.375-53.487c2.795-17.825,5.596-35.649,8.399-53.473c2.579-16.396,5.163-32.791,7.748-49.187
		c1.37-8.692,2.713-17.388,4.15-26.069c0.292-1.76-0.358-2.423-1.985-2.629c-2.098-0.265-4.183-0.635-6.273-0.965
		c-15.181-2.397-30.365-4.78-45.542-7.203c-3.619-0.578-3.934-1.076-3.389-4.55c2.677-17.057,5.352-34.114,8.034-51.169
		c0.458-2.91,0.47-2.898-2.359-3.341c-11.884-1.859-23.768-3.718-35.651-5.588c-17.825-2.805-35.648-5.628-53.474-8.427
		c-17.714-2.781-35.433-5.534-53.147-8.311c-17.937-2.811-35.872-5.634-53.808-8.456c-14.852-2.336-29.703-4.683-44.555-7.017
		C813.044,269.326,803.468,267.835,793.538,266.283z"/>
	<path class="st2" d="M830.024,714.479c-2.521-0.564-2.598,0.911-2.984,2.017c-5.509,15.77-11.018,31.539-16.506,47.316
		c-0.773,2.221-0.736,2.277,1.508,3.07c5.146,1.818,10.307,3.593,15.461,5.386c94.041,32.719,188.083,65.438,282.124,98.157
		c5.26,1.83,10.529,3.632,15.767,5.52c1.594,0.575,2.484,0.286,2.898-1.444c0.283-1.185,0.801-2.313,1.203-3.471
		c22.791-65.537,45.573-131.078,68.374-196.612c21.998-63.228,44.015-126.45,66.021-189.675c1.721-4.944,3.364-9.916,5.166-14.831
		c0.608-1.658,0.335-2.542-1.436-2.873c-0.432-0.081-0.839-0.296-1.26-0.443c-15.878-5.539-31.753-11.084-47.635-16.611
		c-8.1-2.818-16.206-5.617-24.321-8.392c-2.38-0.814-2.423-0.773-3.294,1.605c-0.804,2.196-1.547,4.414-2.315,6.623
		c-21.706,62.379-43.412,124.757-65.117,187.136c-6.808,19.566-13.604,39.137-20.428,58.698c-1.215,3.483-1.603,3.654-5.107,2.467
		c-4.643-1.572-9.266-3.2-13.897-4.806c-3.894-1.35-7.782-2.721-11.684-4.048c-2.155-0.733-2.167-0.701-2.588,1.38
		c-0.11,0.546-0.222,1.093-0.308,1.643c-2.103,13.428-4.205,26.856-6.301,40.285c-0.739,4.733-1.432,9.474-2.207,14.202
		c-0.559,3.41-1.104,3.791-4.372,3.325c-1.544-0.22-3.08-0.487-4.621-0.73c-17.937-2.826-35.872-5.658-53.81-8.476
		c-16.286-2.558-32.575-5.094-48.861-7.651c-16.397-2.575-32.791-5.163-49.186-7.746c-16.506-2.6-33.01-5.206-49.517-7.799
		C843.64,716.58,836.484,715.481,830.024,714.479z"/>
	<path class="st3" d="M1071.155,682.963c-0.236,0.902,0.309,1.49,1.489,1.835c1.601,0.467,3.15,1.111,4.727,1.661
		c6.52,2.275,13.04,4.552,19.566,6.81c2.353,0.814,2.362,0.791,3.238-1.624c0.076-0.209,0.123-0.429,0.196-0.639
		c11.289-32.392,22.592-64.779,33.865-97.176c20.684-59.443,41.345-118.894,62.025-178.338
		c14.784-42.498,29.583-84.991,44.37-127.488c0.939-2.698,0.929-2.738-1.806-3.69c-16.619-5.788-33.246-11.555-49.866-17.34
		c-83.418-29.034-166.834-58.073-250.252-87.107c-4.418-1.538-8.861-3.006-13.254-4.61c-1.276-0.466-1.875-0.151-2.211,1.062
		c-0.148,0.536-0.342,1.06-0.525,1.586c-5.568,15.99-11.142,31.979-16.704,47.971c-5.598,16.097-11.192,32.195-16.768,48.299
		c-0.92,2.656-0.876,2.692,1.798,3.117c11,1.749,22.001,3.495,33.004,5.225c17.939,2.822,35.879,5.632,53.819,8.445
		c16.287,2.554,32.574,5.107,48.861,7.657c13.318,2.085,26.634,4.18,39.957,6.232c1.954,0.301,3.437,0.99,4.683,2.711
		c15.562,21.49,31.197,42.929,46.854,64.351c1.073,1.468,1.378,2.855,1.067,4.654c-1.118,6.476-2.063,12.983-3.086,19.476
		c-2.791,17.716-5.596,35.43-8.379,53.147c-2.784,17.72-5.542,35.444-8.322,53.164c-2.572,16.398-5.161,32.792-7.736,49.189
		c-2.99,19.041-5.971,38.083-8.961,57.123c-3.024,19.259-6.055,38.517-9.079,57.776
		C1072.878,671.836,1072.046,677.231,1071.155,682.963z"/>
	<path class="st0" d="M1062.058,361.945c-0.11,1.658-0.014,1.751,2.649,2.165c14.969,2.332,29.938,4.662,44.907,6.99
		c0.76,0.118,1.867,0.682,2.21,0.115c0.5-0.826-0.599-1.513-1.041-2.242c-0.288-0.475-0.65-0.905-0.978-1.355
		c-9.255-12.703-18.511-25.406-27.766-38.11c-3.61-4.956-7.211-9.918-10.834-14.864c-0.304-0.416-0.569-1.078-1.243-0.897
		c-0.702,0.189-0.482,0.911-0.562,1.411c-1.547,9.68-3.082,19.361-4.603,29.045C1063.882,350.034,1062.995,355.87,1062.058,361.945z
		"/>
	<path class="st0" d="M156.065,503.359c13.79-5.992,27.58-11.986,41.372-17.976c4.087-1.775,8.186-3.522,12.267-5.31
		c2.339-1.025,2.385-1.061,1.935-3.688c-1.656-9.661-3.355-19.315-5.034-28.973c-0.878-5.049-1.76-10.098-2.614-15.151
		c-0.5-2.957-0.201-3.406,2.883-3.953c13.71-2.432,27.425-4.833,41.139-7.239c12.177-2.137,24.356-4.266,36.534-6.399
		c0.439-0.077,0.875-0.178,1.316-0.234c2.768-0.349,3.407,0.068,3.902,2.763c0.723,3.945,1.377,7.903,2.064,11.855
		c0.229,1.317,0.453,2.635,0.702,3.948c0.448,2.357,0.609,2.514,3.055,2.419c18.591-0.722,37.181-1.463,55.772-2.19
		c1.782-0.07,3.566-0.107,5.349-0.12c3.56-0.026,3.861,0.226,3.995,3.696c0.317,8.24,0.628,16.48,0.876,24.722
		c0.18,5.988,0.142,5.951,5.892,7.128c12.877,2.634,25.735,5.366,38.628,7.917c2.206,0.437,3.158,1.775,4.062,3.501
		c10.646,20.335,21.314,40.658,31.972,60.987c12.313,23.487,24.622,46.976,36.932,70.464c0.31,0.592,0.619,1.184,0.923,1.779
		c0.747,1.464,0.355,2.581-1.06,3.35c-1.86,1.011-3.725,2.013-5.6,2.996c-77.459,40.622-154.92,81.242-232.38,121.862
		c-2.566,1.345-5.119,2.715-7.7,4.03c-3.198,1.629-3.795,1.447-5.468-1.741c-6.886-13.122-13.745-26.258-20.627-39.382
		c-16.092-30.689-32.166-61.387-48.337-92.035c-1.271-2.409-1.334-4.372-0.257-6.861c6.505-15.029,12.809-30.145,19.299-45.181
		c0.967-2.241,0.933-4.058-0.05-6.296c-6.63-15.096-13.105-30.261-19.653-45.393c-0.516-1.193-0.695-2.638-2.09-3.286
		C156.065,504.698,156.065,504.028,156.065,503.359z"/>
	<path class="st1" d="M166.119,613.176c-1.446-0.249-2.066-0.025-1.348,1.29c0.427,0.782,0.812,1.587,1.226,2.376
		c14.122,26.937,28.244,53.874,42.369,80.809c7.244,13.813,14.493,27.624,21.745,41.433c1.342,2.555,1.358,2.557,3.891,1.236
		c5.631-2.936,11.261-5.875,16.885-8.824c36.012-18.885,72.022-37.776,108.033-56.662c37.887-19.869,75.779-39.726,113.654-59.618
		c3.189-1.675,3.012-1.016,1.375-4.346c-0.098-0.2-0.188-0.405-0.291-0.602c-21.28-40.544-42.56-81.087-63.844-121.628
		c-0.561-1.068-0.955-2.908-1.898-2.905c-1.178,0.004-1.287,1.864-1.75,2.954c-21.912,51.571-43.797,103.155-65.703,154.729
		c-2.45,5.768-1.702,5.339-7.745,4.097c-24.325-5-48.647-10.021-72.969-15.036c-24.432-5.038-48.863-10.081-73.294-15.12
		C179.583,615.942,172.71,614.532,166.119,613.176z"/>
	<path class="st4" d="M233.074,474.677c-0.631,0.258-1.356,0.541-2.07,0.848c-22.299,9.61-44.6,19.218-66.893,28.842
		c-2.932,1.265-2.704,1.018-1.514,3.798c0.219,0.512,0.435,1.025,0.655,1.536c6.875,15.959,13.75,31.918,20.627,47.876
		c8.244,19.13,16.529,38.243,24.688,57.41c0.944,2.218,2.153,3.357,4.572,3.607c2.425,0.25,4.808,0.925,7.207,1.422
		c26.388,5.464,52.773,10.943,79.172,16.348c1.211,0.248,2.834,1.332,3.678,0.229c0.628-0.82-0.594-2.229-1.073-3.339
		c-19.828-46.037-39.666-92.069-59.504-138.102c-2.689-6.24-5.378-12.481-8.08-18.716
		C234.245,475.752,234.143,474.885,233.074,474.677z"/>
	<path class="st4" d="M264.795,494.657c15.068,0.04,28.133,10.634,31.201,25.307c3.14,15.017-4.404,29.953-18.242,36.103
		c-0.712,0.316-1.436,0.612-2.174,0.859c-1.099,0.367-1.341,1.043-0.861,2.056c0.239,0.503,0.452,1.018,0.672,1.529
		c5.331,12.377,10.657,24.755,15.993,37.129c3.483,8.078,6.97,16.155,10.477,24.222c1.054,2.425,1.093,2.445,3.614,2.03
		c3.955-0.652,7.891-1.418,11.852-2.025c4.835-0.741,3.73-0.915,3.101-4.641c-2.519-14.931-5.201-29.835-7.806-44.752
		c-3.87-22.158-7.721-44.32-11.592-66.478c-3.277-18.758-6.574-37.513-9.856-56.27c-1.631-9.323-3.231-18.652-4.882-27.972
		c-0.529-2.986-0.672-3.036-3.7-2.492c-0.109,0.02-0.215,0.059-0.325,0.079c-8.445,1.478-16.891,2.958-25.337,4.431
		c-15.465,2.697-30.933,5.383-46.396,8.093c-2.211,0.387-2.242,0.461-1.83,2.884c1.27,7.466,2.554,14.929,3.846,22.391
		c1.025,5.924,2.058,11.847,3.112,17.767c0.428,2.407,0.477,2.43,2.783,1.446c3.38-1.442,6.743-2.926,10.117-4.384
		c1.635-0.706,3.248-1.481,4.928-2.062c1.878-0.65,2.577-0.307,3.484,1.465c0.456,0.891,0.817,1.83,1.213,2.751
		c3.212,7.469,6.412,14.942,9.64,22.404c0.938,2.169,0.991,2.19,3.063,1.24C255.309,495.743,259.929,494.658,264.795,494.657z"/>
	<path class="st4" d="M359.295,510.317c-0.348-8.346-0.732-16.692-1.035-25.04c-0.55-15.142-1.049-30.286-1.575-45.429
		c-0.086-2.468-0.1-2.498-2.709-2.402c-14.473,0.53-28.945,1.071-43.416,1.62c-4.786,0.182-9.568,0.477-14.355,0.57
		c-2.251,0.044-2.577-0.009-2.083,2.807c0.366,2.083,0.754,4.162,1.119,6.245c3.476,19.86,6.938,39.721,10.431,59.578
		c0.762,4.332,0.789,4.258,4.852,2.942c11.926-3.864,22.825-1.768,32.074,6.6c9.284,8.4,12.358,19.149,9.544,31.315
		c-3.43,14.825-16.604,24.664-32.207,24.441c-2.851-0.041-2.9-0.018-2.424,2.7c2.076,11.848,4.181,23.692,6.258,35.54
		c0.596,3.4,1.216,6.8,1.673,10.22c0.276,2.066-0.191,2.602-2.148,3.052c-1.301,0.299-2.629,0.485-3.946,0.712
		c-4.171,0.718-8.348,1.407-12.514,2.158c-2.032,0.366-2.108,0.518-1.359,2.361c0.798,1.96,1.786,3.85,2.478,5.845
		c0.592,1.705,1.676,2.347,3.383,2.678c7.216,1.397,14.4,2.955,21.605,4.409c2.744,0.554,2.775,0.507,3.865-2.058
		c8.149-19.171,16.287-38.348,24.44-57.517c0.487-1.144,0.7-2.263,0.639-3.543c-0.377-7.9-0.667-15.804-0.953-23.708
		C360.374,541.048,359.84,525.682,359.295,510.317z"/>
	<path class="st4" d="M348.876,541.337c0.077-2.133-0.244-4.442-0.814-6.724c-4.082-16.339-22.178-25.419-37.674-18.862
		c-3.824,1.618-3.125,1.766-2.616,4.607c2.693,15.01,5.255,30.044,7.887,45.065c0.645,3.682,0.689,3.674,4.319,3.965
		c0.333,0.027,0.666,0.091,0.998,0.08C339.036,568.9,349.115,554.469,348.876,541.337z"/>
	<path class="st1" d="M364.178,530.215c0.006,0,0.011,0,0.017-0.001c0.47,12.916,0.935,25.832,1.426,38.748
		c0.027,0.714-0.433,1.844,0.419,2.056c0.996,0.248,0.806-1.082,1.229-1.655c0.322-0.436,0.463-1.007,0.68-1.52
		c5.356-12.614,10.717-25.226,16.067-37.842c4.393-10.36,8.775-20.725,13.16-31.089c1.257-2.972,1.254-2.973-2.021-3.657
		c-1.526-0.319-3.051-0.643-4.578-0.958c-8.618-1.774-17.243-3.516-25.849-5.348c-1.464-0.312-2.139-0.061-2.006,1.515
		c0.037,0.444,0.061,0.89,0.077,1.335C363.259,504.604,363.719,517.41,364.178,530.215z"/>
	<path class="st4" d="M292.565,526.535c0.13-1.758-0.259-3.731-0.667-5.695c-3.589-17.268-23.026-26.97-38.84-19.396
		c-2.517,1.206-2.56,1.224-1.512,3.663c6.595,15.353,13.203,30.701,19.828,46.041c1.083,2.509,1.131,2.488,3.672,1.478
		C285.493,548.473,292.557,538.062,292.565,526.535z"/>
	<path class="st1" d="M187.87,577.912c-0.21-0.614-0.386-1.26-0.646-1.871c-1.528-3.586-3.063-7.169-4.631-10.737
		c-0.255-0.581-0.325-1.504-1.05-1.571c-1.031-0.096-0.863,1.079-1.293,1.645c-0.13,0.171-0.166,0.411-0.253,0.616
		c-5.525,13.017-11.052,26.033-16.577,39.049c-0.218,0.512-0.432,1.026-0.639,1.543c-0.441,1.099-0.043,1.628,1.108,1.837
		c2.519,0.458,5.023,1.003,7.535,1.502c2.657,0.528,2.687,0.535,3.687-1.812c4.016-9.425,8.014-18.857,12.014-28.289
		C187.385,579.21,187.61,578.581,187.87,577.912z"/>
	<path class="st1" d="M362.322,477.635c0,1.447-0.022,2.895,0.006,4.341c0.029,1.49,0.523,2.505,2.271,2.687
		c1.652,0.172,3.27,0.656,4.905,0.992c9.596,1.967,19.196,3.909,28.782,5.924c1.126,0.237,1.927,0.295,2.427-0.92
		c1.187-2.882,2.405-5.752,3.623-8.621c0.404-0.952,0.105-1.453-0.903-1.617c-0.548-0.089-1.079-0.277-1.624-0.388
		c-11.341-2.318-22.683-4.626-34.023-6.951c-1.738-0.356-3.945-1.595-5.105-0.768C361.224,473.354,362.412,475.809,362.322,477.635z
		"/>
	<path class="st1" d="M202.659,616.414c1.63,0.141,1.838-0.104,1.226-1.655c-0.736-1.864-1.572-3.689-2.364-5.531
		c-3.345-7.774-6.679-15.552-10.055-23.312c-0.279-0.641-0.266-1.782-1.158-1.739c-0.859,0.042-0.889,1.172-1.206,1.848
		c-0.707,1.512-1.319,3.068-1.971,4.606c-2.652,6.254-5.328,12.498-7.943,18.768c-0.777,1.863-0.692,1.964,1.313,2.406
		c3.153,0.695,6.319,1.332,9.481,1.988C194.233,614.676,198.485,615.552,202.659,616.414z"/>
	<path class="st0" d="M605.706,131.335c1.329,0.917,2.95,0.882,4.422,1.335c10.415,3.204,18.072,12.257,19.074,23.107
		c1.014,10.982,1.756,21.99,2.592,32.988c1.039,13.665,2.062,27.332,3.076,40.999c0.61,8.223,1.166,16.449,1.788,24.671
		c0.323,4.272,0.366,4.288,4.585,4.05c2.113-0.119,4.223-0.304,6.331-0.491c10.321-0.916,18.712,5.631,19.9,15.932
		c0.854,7.411,1.224,14.878,1.786,22.322c1.041,13.776,2.067,27.554,3.096,41.331c0.98,13.111,1.953,26.223,2.934,39.334
		c1.022,13.667,2.05,27.333,3.074,40.999c0.983,13.111,1.963,26.222,2.946,39.332c1.033,13.777,2.07,27.554,3.102,41.332
		c0.974,13,1.938,26,2.915,38.999c0.376,4.999,0.75,9.999,1.168,14.995c0.828,9.905-4.686,18.001-13.851,20.041
		c-2.376,0.529-4.856,0.635-7.297,0.817c-13.334,0.991-26.672,1.923-40.005,2.919c-13.444,1.005-26.883,2.082-40.326,3.089
		c-13.222,0.99-26.448,1.923-39.671,2.899c-4.667,0.345-9.331,0.73-13.994,1.123c-9.208,0.774-16.891-4.091-19.527-12.357
		c-0.617-1.934-0.823-3.933-0.972-5.926c-1.222-16.334-2.373-32.673-3.598-49.006c-1.45-19.332-2.976-38.659-4.426-57.991
		c-1.225-16.333-2.366-32.672-3.588-49.005c-1.231-16.444-2.539-32.882-3.77-49.326c-1.222-16.333-2.379-32.672-3.587-49.006
		c-0.551-7.445-1.144-14.887-1.742-22.328c-0.88-10.956,6.292-19.326,17.23-20.09c2.667-0.186,5.332-0.406,7.999-0.608
		c2.702-0.204,2.725-0.228,2.516-3.009c-0.869-11.555-1.738-23.109-2.608-34.664c-0.033-0.444-0.058-0.89-0.112-1.332
		c-0.306-2.533-0.313-2.606-2.808-2.459c-4.448,0.262-8.892,0.608-13.336,0.943c-10.221,0.77-20.44,1.584-30.664,2.319
		c-3.641,0.262-3.974-0.034-4.27-3.8c-0.777-9.886-1.476-19.778-2.214-29.667c-0.597-8-1.074-16.011-1.844-23.994
		c-0.92-9.537,1.278-17.913,8.359-24.687c4.604-4.405,10.117-6.909,16.437-7.392c24.663-1.883,49.334-3.668,74-5.509
		c11.445-0.854,22.887-1.745,34.328-2.648c0.853-0.067,1.813,0.169,2.525-0.579C600.353,131.335,603.03,131.335,605.706,131.335z"/>
	<path class="st5" d="M684.118,551.614c0.003,0,0.005,0,0.008-0.001c-0.757-10.559-1.48-21.121-2.277-31.677
		c-1.459-19.333-2.989-38.661-4.436-57.995c-1.456-19.446-2.818-38.899-4.272-58.346c-1.678-22.445-3.414-44.886-5.119-67.33
		c-0.227-2.986-0.217-3.063-3.371-2.846c-9.894,0.681-19.786,1.397-29.675,2.148c-22.11,1.679-44.216,3.412-66.327,5.075
		c-21.778,1.638-43.561,3.215-65.342,4.821c-2.669,0.197-2.703,0.234-2.487,3.039c0.385,4.999,0.796,9.996,1.172,14.996
		c0.985,13.112,1.951,26.225,2.937,39.337c1.019,13.556,2.064,27.11,3.077,40.667c0.988,13.223,1.936,26.449,2.928,39.672
		c1.008,13.445,2.052,26.888,3.074,40.332c1.089,14.332,2.108,28.669,3.283,42.994c0.654,7.977,6.751,13.239,14.7,12.763
		c8.453-0.507,16.897-1.164,25.341-1.802c19.222-1.453,38.44-2.957,57.662-4.4c18.778-1.41,37.562-2.747,56.34-4.162
		c7.738-0.583,13.113-6.548,12.989-14.284C684.306,553.612,684.189,552.613,684.118,551.614z"/>
	<path class="st1" d="M632.415,252.897c-0.777-10.065-1.659-21.284-2.505-32.506c-1.599-21.223-3.137-42.45-4.779-63.669
		c-0.935-12.081-11.853-21.675-23.917-20.992c-8.564,0.485-17.115,1.207-25.671,1.845c-13.889,1.035-27.777,2.093-41.666,3.131
		c-9.556,0.714-19.114,1.411-28.671,2.121c-0.539,0.04-1.255-0.111-1.49,0.492c-0.34,0.875,0.578,1.051,1.056,1.392
		c7.161,5.103,11.118,12.056,11.831,20.787c0.953,11.661,1.793,23.33,2.665,34.998c1.594,21.334,3.174,42.67,4.763,64.004
		c0.201,2.7,0.214,2.769,2.953,2.584c6.67-0.451,13.336-0.968,20.003-1.469c13.888-1.043,27.776-2.098,41.665-3.14
		c13-0.975,26.005-1.903,39.001-2.927C632.737,259.148,632.73,259.054,632.415,252.897z"/>
	<path class="st3" d="M496.312,289.907c0.071,0,0.141,0.001,0.212,0.001c0.976,13.446,1.95,26.893,2.928,40.339
		c0.218,3,0.48,5.998,0.661,9.001c0.101,1.669,0.785,2.323,2.542,2.141c3.656-0.379,7.331-0.57,10.997-0.849
		c13.442-1.026,26.883-2.076,40.327-3.08c13.333-0.996,26.671-1.934,40.004-2.925c17-1.263,33.998-2.557,50.997-3.829
		c6.556-0.491,13.115-0.937,19.669-1.448c2.7-0.211,2.756-0.279,2.609-3.018c-0.167-3.115-0.425-6.224-0.663-9.335
		c-1.061-13.887-2.048-27.78-3.225-41.656c-0.728-8.579-6.915-13.632-15.441-12.994c-10.444,0.782-20.891,1.514-31.336,2.289
		c-12.778,0.948-25.555,1.916-38.332,2.878c-13.666,1.029-27.332,2.064-40.998,3.088c-9.444,0.708-18.898,1.301-28.33,2.134
		c-7.081,0.626-12.242,6.057-12.611,12.928C496.245,287.012,496.312,288.461,496.312,289.907z"/>
	<path class="st1" d="M516.111,215.801c0.006-0.001,0.012-0.001,0.017-0.001c-1.191-16.323-2.362-32.648-3.596-48.968
		c-0.15-1.987-0.416-3.977-1.001-5.917c-3.511-11.644-14.939-18.625-26.743-16.298c-11.794,2.325-19.726,13.144-18.723,25.178
		c1.174,14.091,2.137,28.199,3.192,42.3c0.274,3.664,0.573,7.326,0.811,10.992c0.108,1.659,0.762,2.478,2.534,2.079
		c0.535-0.12,1.111-0.046,1.666-0.087c12.77-0.936,25.538-1.889,38.309-2.807c4.102-0.295,4.104-0.252,3.702-4.474
		C516.215,217.133,516.167,216.467,516.111,215.801z"/>
	<path class="st0" d="M652.482,654.711c-0.029,8.087-4.735,14.956-12.578,17.998c-10.071,3.907-20.196,7.674-30.299,11.499
		c-25.308,9.582-50.621,19.153-75.919,28.764c-1.92,0.729-3.723,1.011-5.825,0.683c-10.013-1.56-20.058-2.918-30.09-4.357
		c-0.881-0.126-1.774-0.243-2.627-0.483c-1.933-0.545-2.374-1.797-1.254-3.511c0.363-0.556,0.842-1.037,1.273-1.547
		c6.696-7.912,13.424-15.798,20.063-23.758c1.272-1.526,2.764-2.483,4.579-3.169c34.69-13.112,69.373-26.242,104.048-39.39
		c4.328-1.641,8.639-2.79,13.355-1.722C646.229,637.76,652.515,645.47,652.482,654.711z"/>
	<path class="st6" d="M524.954,687.432c0.297-0.111,1.025-0.382,1.752-0.657c6.038-2.279,12.078-4.552,18.113-6.838
		c22.059-8.356,44.109-16.739,66.19-25.037c1.846-0.694,3.026-1.49,3.207-3.618c0.12-1.413,0.718-2.788,1.133-4.171
		c0.154-0.515,0.637-1.072,0.272-1.542c-0.547-0.705-1.197-0.052-1.791,0.113c-0.428,0.119-0.846,0.278-1.262,0.436
		c-28.927,10.955-57.858,21.9-86.768,32.903c-1.563,0.595-4.108,0.525-4.293,2.451c-0.163,1.698,1.101,3.534,1.738,5.308
		c0.037,0.104,0.102,0.197,0.152,0.297C523.633,687.551,524.023,687.657,524.954,687.432z"/>
	<path class="st6" d="M626.223,673.308c0.064-0.56-0.249-0.662-0.521-0.815c-1.26-0.71-2.75-1.197-3.724-2.19
		c-2.06-2.099-4.031-1.872-6.577-0.898c-27.576,10.542-55.198,20.963-82.8,31.436c-4.113,1.561-3.636,1.097-2.235,4.841
		c1.395,3.727,0.83,3.845,4.818,2.336c28.342-10.722,56.681-21.45,85.022-32.177c1.667-0.631,3.338-1.254,4.994-1.913
		C625.594,673.771,625.938,673.484,626.223,673.308z"/>
	<path class="st6" d="M616.186,664.087c-0.52-1.304-1.194-2.506-1.468-3.794c-0.395-1.856-1.289-2.133-2.836-1.361
		c-0.396,0.198-0.839,0.298-1.256,0.456c-27.086,10.254-54.172,20.506-81.256,30.766c-4.633,1.755-4.667,1.941-2.435,6.601
		c0.534,1.114,1.128,1.556,2.318,0.965c0.695-0.345,1.455-0.559,2.184-0.835c22.503-8.516,45.006-17.032,67.507-25.551
		c5.209-1.972,10.414-3.954,15.618-5.938C615.253,665.133,616.12,665.051,616.186,664.087z"/>
	<path class="st0" d="M648.472,654.619c-0.221-8.089-6.133-15.086-15.376-15.287c-8.095-0.177-15.357,7.023-15.211,15.113
		c0.173,9.623,7.433,15.29,15.197,15.44C641.377,670.046,648.462,662.928,648.472,654.619z"/>
	<path class="st1" d="M524.933,709.066c2.01,0.221,2.287-0.016,1.607-1.839c-2.719-7.276-5.531-14.517-8.25-21.794
		c-0.624-1.669-1.265-1.092-2.025-0.202c-1.731,2.027-3.502,4.022-5.166,6.103c-1.588,1.985-4.184,3.587-4.563,5.998
		c-0.377,2.4,1.656,4.732,2.274,7.197c0.498,1.984,1.806,2.573,3.589,2.805C516.582,707.878,520.756,708.484,524.933,709.066z"/>
	<path class="st0" d="M502.91,705.955c0.717,0.043,1.298,0.22,1.67-0.327c0.251-0.37-0.929-3.665-1.38-3.947
		c-0.315-0.197-0.62-0.12-0.856,0.126c-0.9,0.939-2.418,1.845-2.281,3.035C500.225,706.247,502.144,705.305,502.91,705.955z"/>
	<path class="st0" d="M279.732,262.239c3.347-0.135,6.631,1.118,9.826,2.832c15.899,8.533,31.819,17.024,47.732,25.531
		c16.993,9.084,33.969,18.199,50.998,27.217c2.158,1.143,3.731,2.625,5.026,4.668c5.13,8.093,10.408,16.091,15.544,24.179
		c1.172,1.845,2.454,3.406,4.549,4.196c0.618,0.233,1.198,0.598,1.749,0.972c0.921,0.626,1.375,1.488,0.892,2.584
		c-0.498,1.131-1.504,1.204-2.552,1.021c-0.32-0.056-0.659-0.187-0.918-0.379c-3.642-2.706-7.847-2.005-11.927-1.953
		c-8.688,0.11-17.376,0.252-26.062,0.448c-1.685,0.038-2.992-0.746-4.355-1.475c-27.604-14.75-55.205-29.507-82.806-44.263
		c-5.795-3.098-11.621-6.14-17.372-9.317c-6.351-3.508-9.825-8.987-10.177-16.212C259.332,271.102,268.129,262.165,279.732,262.239z
		"/>
	<path class="st5" d="M386.751,322.356c-0.397-1.203-1.468-1.413-2.322-1.87c-25.73-13.769-51.465-27.529-77.199-41.291
		c-5.697-3.047-11.422-6.042-17.071-9.174c-1.556-0.863-2.343-0.584-3.078,0.944c-0.965,2.006-2.084,3.937-3.134,5.902
		c-2.94,5.501-5.893,10.995-8.813,16.507c-1.295,2.445-1.266,2.462,0.988,3.726c0.486,0.273,0.977,0.536,1.468,0.798
		c16.013,8.555,32.028,17.107,48.04,25.664c14.833,7.928,29.662,15.865,44.497,23.789c2.571,1.373,2.609,1.365,3.967-1.163
		c3.952-7.36,7.883-14.731,11.817-22.101C386.222,323.505,386.489,322.9,386.751,322.356z"/>
	<path class="st5" d="M391.327,349.404c4.012,0.016,8.01-0.374,12.015-0.465c1.704-0.039,1.87-0.306,0.971-1.714
		c-4.374-6.849-8.814-13.657-13.2-20.499c-0.833-1.299-1.384-1.092-2.034,0.132c-3.655,6.88-7.356,13.736-10.989,20.627
		c-0.848,1.608-0.661,1.88,1.217,1.903C383.314,349.439,387.321,349.404,391.327,349.404z"/>
	<path class="st5" d="M263.846,281.752c0.225,3.716,1.514,7.42,4.526,10.393c1.634,1.613,1.825,1.626,2.856-0.28
		c4.077-7.54,8.124-15.097,12.138-22.671c1.003-1.893,0.771-2.263-1.26-2.685C272.959,264.611,263.987,271.893,263.846,281.752z"/>
	<path class="st0" d="M562.362,754.792c16.027,0.166,29.756,5.832,41.095,17.217c0.393,0.395,0.855,0.744,1.163,1.198
		c0.886,1.308,1.798,1.263,3.08,0.451c4.046-2.567,8.164-5.019,12.255-7.515c1.332-0.812,2.632-1.684,4.006-2.419
		c4.67-2.497,10.04-1.116,12.536,3.176c2.57,4.419,1.317,9.669-3.183,12.538c-4.979,3.175-10.069,6.176-15.104,9.264
		c-2.64,1.619-2.634,1.629-1.6,4.646c10.911,31.827-7.612,65.984-40.239,74.204c-32.811,8.266-65.613-13.672-70.507-47.154
		c-4.557-31.177,16.523-59.956,47.496-64.916C556.35,755.004,559.336,754.844,562.362,754.792z"/>
	<path class="st1" d="M563.255,865.011c25.875-0.08,52.192-20.701,52.237-53.045c0.043-31.129-25.335-53.226-53.661-53.032
		c-28.769,0.197-52.69,24.288-52.449,53.284C509.631,842.284,534.156,865.522,563.255,865.011z"/>
	<path class="st1" d="M628.218,766.683c-0.493,0.151-1.315,0.24-1.959,0.626c-5.448,3.266-10.861,6.59-16.29,9.887
		c-0.949,0.576-1.111,1.182-0.443,2.165c1.126,1.656,2.12,3.404,3.151,5.124c1.117,1.862,1.133,1.909,2.954,0.807
		c4.959-2.999,9.897-6.031,14.836-9.063c0.567-0.348,1.148-0.712,1.616-1.176c1.461-1.447,1.863-3.754,0.978-5.542
		C632.133,767.635,630.57,766.732,628.218,766.683z"/>
	<path class="st0" d="M822.612,436.548c3.084,0.461,6.279,0.92,9.468,1.42c32.67,5.126,65.34,10.26,98.01,15.389
		c32.668,5.129,65.337,10.254,98.005,15.382c4.18,0.656,8.36,1.308,12.538,1.98c0.768,0.124,1.532,0.299,2.282,0.509
		c1.128,0.316,1.705,1.122,1.482,2.254c-0.22,1.118-1.062,1.682-2.208,1.625c-0.662-0.033-1.316-0.209-1.976-0.312
		c-20.681-3.228-41.365-6.439-62.043-9.688c-20.68-3.249-41.35-6.554-62.031-9.798c-23.429-3.675-46.864-7.308-70.295-10.964
		c-7.261-1.133-14.521-2.278-21.78-3.425c-0.77-0.122-1.538-0.27-2.295-0.457c-1.106-0.274-1.823-0.998-1.666-2.148
		C820.279,437.021,821.196,436.447,822.612,436.548z"/>
	<path class="st0" d="M820.094,457.245c4.746,0.749,9.804,1.552,14.864,2.345c17.818,2.792,35.637,5.578,53.455,8.372
		c17.6,2.759,35.199,5.521,52.798,8.287c17.817,2.8,35.631,5.614,53.449,8.41c14.52,2.278,29.042,4.538,43.563,6.807
		c0.33,0.051,0.664,0.092,0.984,0.181c1.159,0.32,2.16,0.882,1.945,2.277c-0.23,1.494-1.284,1.954-2.705,1.734
		c-2.751-0.425-5.505-0.829-8.255-1.261c-19.357-3.047-38.712-6.099-58.069-9.149c-16.386-2.582-32.772-5.168-49.16-7.741
		c-17.598-2.763-35.197-5.516-52.797-8.267c-16.282-2.545-32.565-5.08-48.847-7.624c-0.66-0.103-1.314-0.244-1.967-0.385
		c-1.874-0.404-2.737-1.241-2.454-2.474C817.258,457.188,818.466,457.072,820.094,457.245z"/>
	<path class="st0" d="M1031.533,536.805c-4.918-0.762-9.984-1.537-15.046-2.332c-14.963-2.351-29.924-4.713-44.886-7.064
		c-17.715-2.784-35.432-5.56-53.148-8.339c-16.505-2.589-33.011-5.175-49.516-7.764c-16.175-2.537-32.349-5.078-48.523-7.616
		c-2.531-0.397-5.064-0.779-7.593-1.186c-0.891-0.144-1.765-0.372-2.216-1.28c-0.767-1.543,0.425-3.022,2.442-2.769
		c4.088,0.513,8.158,1.17,12.229,1.809c21.017,3.298,42.033,6.604,63.048,9.916c23.433,3.693,46.862,7.413,70.297,11.088
		c23.548,3.693,47.103,7.344,70.655,11.018c0.99,0.154,1.978,0.336,2.959,0.538c1.962,0.404,2.614,1.118,2.348,2.526
		C1034.357,536.546,1033.642,536.906,1031.533,536.805z"/>
	<path class="st0" d="M817.058,477.903c4.645,0.722,9.819,1.519,14.991,2.33c16.616,2.605,33.232,5.208,49.846,7.823
		c20.573,3.238,41.142,6.499,61.716,9.729c17.826,2.798,35.658,5.561,53.485,8.352c12.652,1.981,25.302,3.981,37.951,5.978
		c0.547,0.086,1.116,0.153,1.619,0.362c0.916,0.381,1.377,1.12,1.239,2.13c-0.143,1.045-0.865,1.577-1.838,1.599
		c-0.995,0.023-2.005-0.094-2.992-0.248c-11.884-1.862-23.764-3.752-35.648-5.617c-16.504-2.59-33.012-5.161-49.516-7.749
		c-18.925-2.968-37.849-5.949-56.774-8.92c-16.615-2.609-33.232-5.208-49.846-7.819c-8.251-1.297-16.499-2.61-24.749-3.915
		c-0.22-0.035-0.442-0.059-0.662-0.093c-1.374-0.213-2.382-0.858-2.165-2.398C813.943,477.823,815.215,477.735,817.058,477.903z"/>
	<path class="st0" d="M943.463,638.542c4.867,0.752,9.815,1.506,14.759,2.283c16.482,2.591,32.963,5.191,49.445,7.787
		c2.088,0.329,4.188,0.594,6.261,0.998c1.902,0.371,2.71,1.273,2.473,2.502c-0.236,1.224-1.365,1.808-3.219,1.522
		c-7.146-1.102-14.286-2.239-21.428-3.363c-15.054-2.37-30.108-4.74-45.161-7.112c-1.209-0.19-2.41-0.439-3.623-0.594
		c-1.433-0.183-2.705-0.537-2.639-2.331C940.378,638.943,941.375,638.426,943.463,638.542z"/>
	<path class="st0" d="M896.082,635.214c-4.777-0.737-9.611-1.471-14.441-2.229c-8.124-1.276-16.245-2.569-24.368-3.852
		c-2.59-0.409-3.418-1.011-3.33-2.438c0.095-1.519,1.065-1.989,4.01-1.546c9.341,1.406,18.671,2.886,28.003,4.346
		c3.404,0.533,6.804,1.085,10.204,1.644c0.651,0.107,1.345,0.177,1.922,0.461c0.87,0.429,1.298,1.222,1.048,2.216
		c-0.209,0.829-0.772,1.336-1.656,1.392C897.032,635.237,896.587,635.214,896.082,635.214z"/>
	<path class="st0" d="M794.766,615.202c6.376,0.986,12.418,1.91,18.456,2.856c6.587,1.032,13.171,2.08,19.755,3.131
		c0.877,0.14,1.748,0.315,2.616,0.503c1.145,0.248,1.741,0.963,1.623,2.147c-0.141,1.418-1.133,1.793-2.365,1.767
		c-0.439-0.009-0.876-0.136-1.314-0.204c-12.408-1.931-24.816-3.86-37.223-5.796c-0.658-0.103-1.302-0.311-1.961-0.39
		c-1.376-0.164-2.383-0.74-2.332-2.268C792.062,615.695,793.241,615.092,794.766,615.202z"/>
	<path class="st0" d="M833.551,373.453c4.35,0.674,9.292,1.427,14.23,2.207c8.009,1.265,16.016,2.548,24.023,3.822
		c0.439,0.07,0.885,0.102,1.322,0.18c1.367,0.245,2.328,0.911,2.069,2.458c-0.237,1.417-1.363,1.663-2.545,1.504
		c-3.632-0.491-7.261-1.014-10.882-1.583c-9.435-1.483-18.866-2.997-28.299-4.496c-0.329-0.052-0.668-0.047-0.993-0.115
		c-1.855-0.386-2.743-1.277-2.434-2.53C830.429,373.332,831.672,373.302,833.551,373.453z"/>
	<path class="st0" d="M206.151,584.274c0.034-17.752,14.392-32.093,32.105-32.065c17.679,0.027,32.195,14.556,32.112,32.139
		c-0.084,17.703-14.525,32.1-32.181,32.084C220.501,616.416,206.117,601.978,206.151,584.274z M210.278,584.25
		c0.24,14.371,10.845,27.824,27.878,27.915c16.379,0.087,27.855-12.807,27.931-27.794c0.075-14.731-11.308-27.882-27.804-27.924
		C222.296,556.407,210.687,568.826,210.278,584.25z"/>
	<path class="st0" d="M549.757,558.329c-0.549,0-1.665,0.047-2.776-0.008c-4.381-0.216-8.069-3.367-8.896-7.698
		c-0.65-3.403-0.765-6.863-0.725-10.318c0.059-5.086,3.414-8.962,8.445-9.565c4.308-0.516,8.644-0.818,12.973-1.137
		c19.43-1.435,38.863-2.841,58.294-4.262c1.887-0.138,3.771-0.421,5.657-0.435c5.639-0.042,9.736,3.671,10.316,9.29
		c0.24,2.325,0.361,4.662,0.557,6.992c0.559,6.663-3.503,11.201-10.338,11.685c-10.883,0.77-21.761,1.617-32.641,2.426
		C577.19,556.297,563.756,557.291,549.757,558.329z M619.102,529.383c-13.329,0.966-26.66,1.912-39.987,2.906
		c-10.55,0.787-21.096,1.622-31.642,2.461c-4.006,0.319-6.051,2.508-5.975,6.518c0.044,2.333,0.294,4.666,0.533,6.991
		c0.435,4.22,2.564,6.109,6.882,5.921c4.004-0.174,8.001-0.534,11.999-0.833c17.102-1.282,34.204-2.575,51.306-3.859
		c3.665-0.275,7.338-0.46,10.995-0.812c3.713-0.357,6.04-2.297,6.105-5.44c0.065-3.1-0.153-6.244-0.641-9.306
		c-0.504-3.165-2.693-4.751-5.91-4.781C621.546,529.14,620.324,529.302,619.102,529.383z"/>
	<path class="st0" d="M596.748,475.276c11.07,0.066,20.181,9.237,20.171,20.304c-0.011,11.206-9.322,20.319-20.594,20.155
		c-11.177-0.163-20.042-9.238-19.945-20.416C576.477,484.233,585.646,475.209,596.748,475.276z"/>
	<path class="st2" d="M612.574,495.48c-0.045-8.764-7.263-16.223-15.935-16.006c-10.704,0.268-16.013,8.79-16.027,15.951
		c-0.019,8.951,7.165,16.124,16.151,16.072C605.592,511.447,612.619,504.328,612.574,495.48z"/>
	<path class="st0" d="M641.571,423.101c11.102,0.033,20.17,9.096,20.224,20.214c0.055,11.232-9.162,20.299-20.475,20.243
		c-9.941-0.049-19.871-7.585-20.047-20.33C621.121,432.184,630.528,423.068,641.571,423.101z"/>
	<path class="st2" d="M641.414,459.308c8.849,0.033,16.016-6.96,16.14-15.745c0.124-8.821-7.298-16.329-16.068-16.253
		c-8.728,0.075-15.995,7.352-15.991,16.014C625.499,452.108,632.637,459.276,641.414,459.308z"/>
	<path class="st0" d="M589.353,378.239c11.153-0.013,20.181,8.957,20.252,20.123c0.072,11.211-9.217,20.529-20.416,20.316
		c-10.894-0.207-20.117-8.301-20.041-20.314C569.233,385.186,579.877,378.131,589.353,378.239z"/>
	<path class="st2" d="M589.201,414.461c8.768,0.076,16.023-7.004,16.168-15.78c0.146-8.82-7.26-16.36-16.027-16.317
		c-8.711,0.043-15.969,7.304-15.998,16.006C573.315,407.142,580.453,414.385,589.201,414.461z"/>
	<path class="st0" d="M543.94,470.847c-11.409-0.419-20.189-9.745-19.747-20.973c0.444-11.278,9.797-19.87,21.253-19.428
		c9.82,0.379,19.501,8.26,19.2,20.761C564.374,462.566,554.936,471.251,543.94,470.847z"/>
	<path class="st2" d="M560.474,450.675c0.017-8.701-7.223-16.047-15.889-16.12c-8.825-0.075-16.215,7.322-16.161,16.177
		c0.053,8.751,7.295,15.934,16.043,15.913C553.204,466.624,560.458,459.387,560.474,450.675z"/>
	<path class="st0" d="M560.983,402.6c-0.201,11.131-9.307,19.831-20.603,19.685c-11.097-0.143-19.914-9.311-19.757-20.542
		c0.157-11.21,9.182-19.96,20.449-19.826C552.448,382.053,561.19,391.135,560.983,402.6z"/>
	<path class="st2" d="M540.656,386.156c-8.777,0.041-15.953,7.255-15.908,15.992c0.045,8.727,7.275,15.89,16.043,15.895
		c8.794,0.005,16.033-7.141,16.066-15.862C556.892,393.289,549.638,386.114,540.656,386.156z"/>
	<path class="st0" d="M568.234,499.319c-0.019,11.157-9.038,20.16-20.216,20.084c-12.502-0.084-20.453-10.754-20.114-20.54
		c0.382-11.038,8.926-19.815,20.064-19.919C559.223,478.84,568.253,487.918,568.234,499.319z"/>
	<path class="st2" d="M532.103,498.972c-0.384,7.011,5.144,16.03,16.022,16.264c8.652,0.187,15.964-7.341,15.984-16.018
		c0.021-8.737-7.155-15.968-15.913-16.036C539.391,483.114,532.175,490.194,532.103,498.972z"/>
	<path class="st0" d="M658.006,394.7c0.034,11.296-8.742,20.257-19.914,20.333c-11.229,0.077-20.075-8.803-20.405-19.936
		c-0.271-9.107,6.833-20.298,20.178-20.512C648.987,374.408,657.972,383.441,658.006,394.7z"/>
	<path class="st2" d="M653.882,394.993c0.065-8.837-6.955-16.064-15.726-16.189c-8.892-0.128-16.279,7.136-16.28,16.007
		c-0.001,8.677,7.257,16.01,15.93,16.095C646.449,410.99,653.819,403.695,653.882,394.993z"/>
	<path class="st0" d="M645.286,471.801c11.275,0.025,20.064,8.847,20.074,20.148c0.01,11.324-8.998,20.169-20.477,20.107
		c-11.176-0.06-19.958-9.047-19.881-20.346C625.078,480.451,633.917,471.776,645.286,471.801z"/>
	<path class="st2" d="M629.128,491.984c0.038,8.7,7.354,15.978,16.031,15.948c8.75-0.031,16.029-7.244,16.075-15.931
		c0.047-8.854-7.302-16.134-16.227-16.074C636.255,475.986,629.09,483.231,629.128,491.984z"/>
	<path class="st0" d="M613.173,446.903c0.048,11.198-8.855,20.241-20.005,20.321c-11.332,0.081-20.382-8.944-20.356-20.299
		c0.026-11.195,8.982-20.153,20.164-20.169C604.142,426.74,613.125,435.7,613.173,446.903z"/>
	<path class="st2" d="M593.065,430.992c-8.749-0.042-16.045,7.126-16.129,15.845c-0.084,8.79,7.403,16.331,16.141,16.257
		c8.656-0.074,15.962-7.442,15.967-16.103C609.049,438.275,601.818,431.034,593.065,430.992z"/>
	<path class="st0" d="M586.486,356.303c5.328-0.404,10.655-0.805,15.982-1.216c2.924-0.225,3.588,0.296,3.824,3.165
		c0.256,3.106,0.526,6.212,0.678,9.324c0.133,2.716-0.276,3.189-2.872,3.394c-11.095,0.877-22.191,1.744-33.291,2.546
		c-3.592,0.26-3.816,0.034-4.167-3.467c-0.31-3.1-0.544-6.211-0.691-9.322c-0.108-2.292,0.501-2.932,2.89-3.123
		C574.719,357.135,580.603,356.732,586.486,356.303z M585.65,368.203c0-0.005-0.001-0.009-0.001-0.014
		c3.888-0.265,7.797-0.362,11.66-0.833c6.543-0.798,5.109,0.772,5.043-5.93c-0.016-1.664-0.783-2.126-2.296-1.944
		c-1.104,0.133-2.224,0.114-3.334,0.201c-7.215,0.566-14.426,1.173-21.643,1.705c-5.271,0.389-5.275,0.346-4.502,5.611
		c0.331,2.256,0.332,2.263,2.746,2.092C577.432,368.8,581.541,368.499,585.65,368.203z"/>
	<path class="st0" d="M558.355,366.324c0.176,1.673,0.304,2.667,0.382,3.664c0.316,4.075-0.072,4.496-4.3,4.802
		c-2.883,0.208-5.763,0.446-8.646,0.65c-7.762,0.549-15.525,1.086-23.287,1.628c-3.488,0.244-3.729,0.09-4.086-3.503
		c-0.297-2.985-0.502-5.983-0.65-8.979c-0.126-2.553,0.296-3.054,2.982-3.335c3.205-0.336,6.426-0.517,9.641-0.755
		c7.649-0.567,15.298-1.128,22.947-1.69c0.444-0.033,0.888-0.07,1.332-0.071c2.746-0.005,3.201,0.413,3.431,3.275
		C558.233,363.671,558.298,365.338,558.355,366.324z"/>
	<path class="st7" d="M554.245,367.158c-0.003,0-0.006,0-0.01,0c-0.016-0.334-0.028-0.668-0.047-1.001
		c-0.194-3.303-0.189-3.242-3.458-2.986c-7.878,0.617-15.765,1.127-23.642,1.766c-5.651,0.459-5.203-0.528-4.721,5.861
		c0.138,1.837,1,2.178,2.604,2.003c2.544-0.278,5.102-0.42,7.655-0.609c6.438-0.478,12.878-0.936,19.314-1.431
		c2.345-0.181,2.375-0.253,2.349-2.602C554.287,367.825,554.261,367.492,554.245,367.158z"/>
	<path class="st0" d="M615.029,359.836c-0.607-6.806,0.124-5.61,5.404-6.066c10.198-0.881,20.412-1.576,30.624-2.281
		c3.594-0.248,3.922,0.159,4.166,3.841c0.184,2.775,0.489,5.544,0.622,8.321c0.145,3.012-0.356,3.553-3.266,3.771
		c-11.207,0.841-22.414,1.67-33.622,2.486c-2.587,0.188-3.013-0.205-3.341-2.886c-0.148-1.215-0.293-2.431-0.395-3.65
		C615.129,362.265,615.098,361.151,615.029,359.836z M651.315,360.101c0.006,0,0.011-0.001,0.017-0.001
		c-0.029-0.445-0.059-0.89-0.088-1.335c-0.202-3.085-0.2-3.061-3.266-2.838c-7.89,0.574-15.796,0.974-23.667,1.733
		c-5.999,0.578-5.377-0.744-4.8,6.021c0.146,1.708,0.94,1.973,2.368,1.845c2.996-0.269,5.998-0.463,8.998-0.687
		c6.111-0.457,12.219-0.95,18.333-1.346c1.632-0.106,2.585-0.554,2.195-2.393C651.337,360.775,651.343,360.434,651.315,360.101z"/>
	<path class="st0" d="M639.057,537.728c-0.009-6.543,5.08-11.678,11.596-11.703c6.441-0.024,11.776,5.236,11.785,11.618
		c0.008,6.349-5.351,11.732-11.713,11.765C644.285,549.443,639.066,544.218,639.057,537.728z"/>
	<path class="st7" d="M650.858,530.178c-3.946-0.093-7.556,3.359-7.661,7.328c-0.106,3.988,3.267,7.509,7.311,7.633
		c4.039,0.123,7.526-3.21,7.622-7.287C658.225,533.825,654.859,530.272,650.858,530.178z"/>
	<path class="st0" d="M599.012,219.66c-2.531,0.03-4.407-1.078-5.987-2.761c-1.142-1.216-2.135-2.584-3.346-3.723
		c-1.862-1.751-3.846-1.589-5.46,0.408c-0.834,1.032-1.459,2.232-2.186,3.351c-3.746,5.762-9.122,6.193-13.807,1.101
		c-0.527-0.573-0.998-1.197-1.51-1.785c-3.123-3.59-5.147-3.417-7.756,0.664c-0.48,0.75-0.901,1.539-1.406,2.271
		c-3.587,5.195-8.935,5.589-13.2,0.973c-0.755-0.817-1.427-1.71-2.175-2.534c-0.981-1.081-2.002-2.076-3.632-2.108
		c-1.458-0.029-2.358-0.853-2.192-2.323c0.171-1.516,1.406-1.917,2.729-1.84c1.949,0.114,3.704,0.8,5.078,2.232
		c1.078,1.123,2.071,2.326,3.123,3.476c2.65,2.895,4.727,2.737,6.97-0.553c0.689-1.01,1.243-2.114,1.949-3.112
		c3.424-4.841,8.706-5.244,12.79-0.979c0.923,0.964,1.717,2.051,2.643,3.012c2.56,2.66,4.629,2.452,6.746-0.664
		c0.688-1.012,1.253-2.107,1.953-3.109c3.464-4.958,8.861-5.321,13.011-0.876c1.063,1.138,1.974,2.431,3.108,3.487
		c1.956,1.823,3.733,1.684,5.408-0.428c1.032-1.302,1.798-2.811,2.77-4.166c1.332-1.857,2.967-3.317,5.372-3.622
		c1.359-0.172,2.514,0.08,2.833,1.602c0.282,1.346-0.543,2.192-1.737,2.419c-2.009,0.382-2.91,1.892-3.897,3.376
		c-0.8,1.202-1.517,2.477-2.443,3.574C603.252,218.815,601.28,219.757,599.012,219.66z"/>
	<path class="st0" d="M600.526,240.483c-2.25,0.008-4.124-0.879-5.645-2.485c-1.148-1.212-2.151-2.565-3.327-3.746
		c-2.088-2.098-4.102-1.989-5.936,0.351c-0.958,1.221-1.659,2.64-2.566,3.905c-3.381,4.716-8.433,5.148-12.53,1.067
		c-1.182-1.177-2.187-2.534-3.394-3.682c-2.101-1.997-3.827-1.857-5.632,0.428c-0.755,0.956-1.326,2.056-1.988,3.087
		c-3.802,5.922-9.463,6.357-14.039,1.076c-0.583-0.673-1.121-1.387-1.719-2.046c-0.982-1.082-2.003-2.059-3.639-2.093
		c-1.474-0.031-2.308-0.92-2.138-2.384c0.187-1.611,1.481-1.701,2.781-1.698c2.018,0.005,3.692,0.801,5.058,2.217
		c1.158,1.201,2.179,2.533,3.333,3.737c2.277,2.374,4.449,2.213,6.365-0.475c0.904-1.268,1.622-2.67,2.551-3.918
		c3.216-4.321,8.235-4.712,12.11-0.939c1.194,1.162,2.194,2.524,3.382,3.693c2.128,2.094,4.127,1.973,5.9-0.366
		c0.871-1.149,1.518-2.467,2.349-3.65c3.609-5.132,9.036-5.463,13.237-0.822c0.822,0.908,1.548,1.906,2.398,2.785
		c2.492,2.578,4.423,2.41,6.525-0.569c0.962-1.363,1.776-2.832,2.767-4.172c1.243-1.679,2.922-2.711,5.044-2.937
		c1.239-0.132,2.273,0.165,2.577,1.509c0.296,1.307-0.373,2.283-1.611,2.495c-2.177,0.374-3.097,2.009-4.093,3.618
		c-0.82,1.326-1.572,2.693-2.72,3.786C604.294,239.809,602.672,240.493,600.526,240.483z"/>
	<path class="st0" d="M594.357,178.002c-1.417-0.103-3.323-1.361-4.927-3.177c-1.032-1.168-1.954-2.457-3.108-3.489
		c-1.746-1.562-3.384-1.414-4.964,0.33c-0.666,0.736-1.258,1.584-1.695,2.474c-3.65,7.423-11.235,7.434-15.425,1.259
		c-0.497-0.732-1.111-1.406-1.765-2.005c-1.958-1.794-3.791-1.727-5.47,0.32c-0.982,1.198-1.763,2.57-2.564,3.906
		c-3.049,5.088-9.517,5.309-13.007,1.109c-0.641-0.771-1.296-1.533-1.977-2.269c-1.132-1.222-2.188-2.462-4.132-2.501
		c-1.391-0.028-2.253-0.945-2.054-2.464c0.189-1.443,1.296-1.649,2.48-1.673c2.128-0.044,3.923,0.731,5.381,2.262
		c1.306,1.371,2.503,2.854,3.879,4.148c1.956,1.839,3.761,1.713,5.415-0.373c0.964-1.216,1.735-2.59,2.553-3.918
		c3.212-5.22,9.782-5.125,13.271-0.777c0.837,1.042,1.68,2.093,2.629,3.028c2.104,2.072,4.171,1.934,5.918-0.388
		c0.735-0.976,1.301-2.077,1.97-3.104c3.772-5.784,9.279-6.223,13.838-1.104c0.889,0.998,1.668,2.109,2.642,3.013
		c1.882,1.747,3.873,1.625,5.487-0.373c0.974-1.206,1.705-2.607,2.567-3.905c1.276-1.922,2.923-3.318,5.246-3.862
		c1.359-0.318,2.522-0.193,3.05,1.207c0.541,1.434-0.193,2.45-1.593,2.757c-1.97,0.431-2.95,1.852-3.894,3.396
		c-0.812,1.328-1.547,2.708-2.675,3.825C599.673,177.401,597.755,178.194,594.357,178.002z"/>
	<path class="st0" d="M537.133,190.585c2.486,0.053,4.26,0.878,5.688,2.424c1.209,1.308,2.313,2.72,3.592,3.952
		c2.004,1.93,3.991,1.774,5.685-0.431c0.878-1.142,1.524-2.46,2.342-3.652c3.569-5.207,8.941-5.618,13.216-1.022
		c1.061,1.141,2.007,2.402,3.148,3.452c1.815,1.67,3.601,1.565,5.193-0.322c0.925-1.097,1.605-2.399,2.399-3.607
		c3.739-5.684,9.291-6.047,13.833-0.902c0.884,1.001,1.671,2.105,2.651,2.999c1.968,1.796,3.793,1.673,5.431-0.415
		c1.095-1.395,1.927-2.992,2.94-4.455c1.331-1.921,3.13-3.152,5.506-3.384c1.06-0.104,2.049,0.074,2.409,1.278
		c0.375,1.252-0.002,2.38-1.292,2.639c-2.386,0.479-3.458,2.235-4.56,4.065c-0.573,0.952-1.16,1.911-1.864,2.765
		c-2.802,3.398-7.181,3.886-10.723,1.265c-1.547-1.145-2.584-2.753-3.859-4.145c-2.565-2.803-4.583-2.677-6.741,0.407
		c-0.893,1.276-1.619,2.676-2.574,3.899c-3.273,4.19-8.03,4.526-11.873,0.835c-1.2-1.153-2.18-2.533-3.352-3.719
		c-2.242-2.27-4.194-2.14-6.112,0.432c-0.995,1.335-1.744,2.855-2.749,4.182c-3.128,4.131-8.155,4.545-11.924,0.988
		c-1.048-0.989-1.916-2.166-2.892-3.234c-0.982-1.074-1.969-2.08-3.616-2.13c-1.388-0.042-2.341-0.752-2.205-2.324
		C534.976,190.768,536.224,190.634,537.133,190.585z"/>
	<path class="st0" d="M528.075,323.448c-0.715,0.004-1.311-0.234-1.68-0.878c-0.425-0.742-0.458-1.57,0.075-2.192
		c0.566-0.66,1.31-1.191,2.039-1.685c10.312-6.982,20.634-13.95,30.958-20.915c0.643-0.434,1.287-0.894,1.991-1.204
		c1.019-0.449,2.034-0.306,2.619,0.714c0.543,0.947,0.449,1.946-0.449,2.704c-0.508,0.429-1.07,0.795-1.622,1.168
		c-10.413,7.033-20.826,14.064-31.245,21.087C529.941,322.8,529.174,323.504,528.075,323.448z"/>
	<path class="st0" d="M567.144,284.107c-0.053,1.164-0.893,1.721-1.738,2.288c-2.773,1.862-5.54,3.735-8.308,5.605
		c-7.751,5.236-15.5,10.475-23.255,15.704c-0.737,0.497-1.478,1.022-2.289,1.363c-0.927,0.39-1.75,0.021-2.333-0.786
		c-0.604-0.835-0.564-1.714,0.126-2.438c0.529-0.554,1.196-0.988,1.837-1.422c10.422-7.051,20.849-14.096,31.279-21.135
		c0.644-0.434,1.286-0.925,2.003-1.186C565.868,281.591,567.227,282.661,567.144,284.107z"/>
	<path class="st1" d="M640.664,654.678c-0.023,4.12-3.27,7.383-7.397,7.435c-4.329,0.054-7.567-3.195-7.534-7.561
		c0.032-4.254,3.108-7.345,7.346-7.38C637.467,647.134,640.688,650.322,640.664,654.678z M636.554,654.529
		c-0.058-1.88-1.621-3.374-3.467-3.316c-1.841,0.058-3.366,1.658-3.321,3.485c0.045,1.833,1.642,3.346,3.491,3.306
		C635.119,657.964,636.612,656.39,636.554,654.529z"/>
	<path class="st0" d="M608.493,812.129c0.381,24.936-20.482,46.163-46.151,45.999c-25.613-0.164-45.871-20.522-45.984-46.238
		c-0.103-23.591,18.491-45.936,45.891-46.007C591.642,765.807,609.263,790.282,608.493,812.129z"/>
	<path class="st8" d="M520.616,811.88c-0.618,20.641,16.304,41.832,41.635,42.064c23.123,0.212,42.091-18.658,42.118-41.627
		c0.028-23.381-18.606-42.371-41.849-42.268C537.123,770.162,520.168,791.246,520.616,811.88z"/>
	<path class="st9" d="M550.346,817.615c-1.503,0.081-2.672-1.691-1.93-3.064c0.359-0.665,0.985-1.201,1.54-1.744
		c7.006-6.858,14.021-13.707,21.033-20.558c0.556-0.543,1.062-1.158,1.872-1.343c0.959-0.219,1.775,0.015,2.345,0.844
		c0.495,0.72,0.471,1.487-0.04,2.178c-0.395,0.534-0.861,1.022-1.337,1.488c-7.086,6.936-14.18,13.863-21.268,20.796
		C551.92,816.84,551.282,817.458,550.346,817.615z"/>
	<path class="st9" d="M551.432,832.516c-1.452-0.021-2.441-1.477-1.803-2.828c0.32-0.678,0.909-1.255,1.459-1.794
		c7.083-6.933,14.18-13.853,21.279-20.77c0.397-0.387,0.8-0.807,1.281-1.059c0.996-0.522,1.958-0.394,2.689,0.521
		c0.635,0.795,0.624,1.664,0,2.454c-0.481,0.609-1.036,1.165-1.592,1.708c-6.93,6.771-13.866,13.535-20.802,20.299
		C553.229,831.744,552.567,832.537,551.432,832.516z"/>
</g>
</svg>
